<?xml version="1.0" encoding="UTF-8"?>
<svg id="Ebene_1" data-name="Ebene 1" xmlns="http://www.w3.org/2000/svg" viewBox="0 0 613 567">
  <defs>
    <style>
      .cls-1 {
        fill: #fc0;
      }

      .cls-2 {
        stroke: #600;
      }

      .cls-2, .cls-3, .cls-4 {
        fill: none;
        stroke-miterlimit: 10;
      }

      .cls-2, .cls-4 {
        stroke-width: 10px;
      }

      .cls-5 {
        fill: #fff;
      }

      .cls-3 {
        stroke: #000;
        stroke-width: 50px;
      }

      .cls-4 {
        stroke: #003;
      }

      .cls-6 {
        fill: #ff3;
      }
    </style>
  </defs>
  <rect class="cls-1" width="613" height="567" rx="77.37" ry="77.37"/>
  <path class="cls-3" d="M92,506l-.48-443.16c0-5.24,6.99-7,9.47-2.39l234.29,436s.05.05.08.05l217.54.5c.05,0,.09-.04.09-.09v-233.91"/>
  <path class="cls-3" d="M335.31,496.5h6.89l-3.17-434.35c-.02-2.29,1.83-4.15,4.12-4.15h209.85"/>
  <g id="Controller">
    <rect x="378" y="263" width="175" height="91"/>
    <rect class="cls-5" x="420" y="289" width="8" height="40"/>
    <rect class="cls-5" x="420" y="288" width="8" height="40" transform="translate(732 -116) rotate(90)"/>
    <rect class="cls-5" x="526" y="289" width="14" height="14"/>
    <rect class="cls-5" x="526" y="314" width="14" height="14"/>
    <rect class="cls-5" x="503" y="289" width="14" height="14"/>
    <rect class="cls-5" x="503" y="314" width="14" height="14"/>
  </g>
  <g id="Pacman">
    <path class="cls-6" d="M91.7,469.23l23.81-54.61c16.34,8.62,27.48,25.79,27.48,45.55,0,28.43-23.05,51.48-51.48,51.48-28.43,0-51.48-23.05-51.48-51.48,0-19.81,11.18-37,27.58-45.61l24.09,54.67Z"/>
  </g>
  <g id="VS">
    <polyline class="cls-2" points="156.24 229.49 129.99 276.14 184.25 282.54"/>
    <polyline class="cls-2" points="214.71 344.49 189.53 296.8 168.3 308.01 191.2 351.36 169.97 362.57 144.71 314.73"/>
    <polyline class="cls-4" points="273.84 314.48 299.82 267.67 245.52 261.58"/>
    <polyline class="cls-4" points="214.71 199.81 240.16 247.35 261.32 236.02 238.18 192.8 259.34 181.48 284.87 229.16"/>
  </g>
</svg>