<?xml version="1.0" encoding="UTF-8"?>
<svg id="Ebene_1" data-name="Ebene 1" xmlns="http://www.w3.org/2000/svg" viewBox="0 0 537.98 489.21">
  <defs>
    <style>
      .cls-1 {
        stroke: #600;
      }

      .cls-1, .cls-2, .cls-3 {
        fill: none;
        stroke-miterlimit: 10;
      }

      .cls-1, .cls-3 {
        stroke-width: 10px;
      }

      .cls-4 {
        fill: #fff;
      }

      .cls-2 {
        stroke: #000;
        stroke-width: 50px;
      }

      .cls-3 {
        stroke: #003;
      }

      .cls-5 {
        fill: #ff3;
      }
    </style>
  </defs>
  <path class="cls-2" d="M51.98,473.21l-.48-443.16c0-5.24,6.99-7,9.47-2.39l234.29,436s.05.05.08.05l217.54.5c.05,0,.09-.04.09-.09v-233.91"/>
  <path class="cls-2" d="M295.29,463.71h6.89l-3.17-434.35c-.02-2.29,1.83-4.15,4.12-4.15h209.85"/>
  <g id="Controller">
    <rect x="337.98" y="230.21" width="175" height="91"/>
    <rect class="cls-4" x="379.98" y="256.21" width="8" height="40"/>
    <rect class="cls-4" x="379.98" y="255.21" width="8" height="40" transform="translate(659.18 -108.77) rotate(90)"/>
    <rect class="cls-4" x="485.98" y="256.21" width="14" height="14"/>
    <rect class="cls-4" x="485.98" y="281.21" width="14" height="14"/>
    <rect class="cls-4" x="462.98" y="256.21" width="14" height="14"/>
    <rect class="cls-4" x="462.98" y="281.21" width="14" height="14"/>
  </g>
  <g id="Pacman">
    <path class="cls-5" d="M51.67,436.44l23.81-54.61c16.34,8.62,27.48,25.79,27.48,45.55,0,28.43-23.05,51.48-51.48,51.48-28.43,0-51.48-23.05-51.48-51.48,0-19.81,11.18-37,27.58-45.61l24.09,54.67Z"/>
  </g>
  <g id="VS">
    <polyline class="cls-1" points="116.21 196.69 89.96 243.35 144.23 249.75"/>
    <polyline class="cls-1" points="174.69 311.69 149.5 264.01 128.28 275.22 151.17 318.57 129.95 329.77 104.69 281.94"/>
    <polyline class="cls-3" points="233.82 281.68 259.8 234.87 205.49 228.79"/>
    <polyline class="cls-3" points="174.68 167.02 200.14 214.56 221.3 203.23 198.16 160.01 219.31 148.68 244.85 196.37"/>
  </g>
</svg>